<mxfile host="65bd71144e">
    <diagram id="ASTWp4ZXTidoFe2xOwB_" name="1b">
        <mxGraphModel dx="1088" dy="569" grid="1" gridSize="10" guides="1" tooltips="1" connect="1" arrows="1" fold="1" page="1" pageScale="1" pageWidth="827" pageHeight="1169" math="0" shadow="0">
            <root>
                <mxCell id="0"/>
                <mxCell id="1" parent="0"/>
                <mxCell id="2" value="預約型買家" style="shape=umlActor;verticalLabelPosition=bottom;verticalAlign=top;html=1;outlineConnect=0;" vertex="1" parent="1">
                    <mxGeometry x="60" y="110" width="30" height="60" as="geometry"/>
                </mxCell>
                <mxCell id="3" value="代銷管理者" style="shape=umlActor;verticalLabelPosition=bottom;verticalAlign=top;html=1;outlineConnect=0;" vertex="1" parent="1">
                    <mxGeometry x="60" y="360" width="30" height="60" as="geometry"/>
                </mxCell>
                <mxCell id="4" value="代銷" style="shape=umlActor;verticalLabelPosition=bottom;verticalAlign=top;html=1;outlineConnect=0;" vertex="1" parent="1">
                    <mxGeometry x="60" y="490" width="30" height="60" as="geometry"/>
                </mxCell>
                <mxCell id="5" value="" style="rounded=0;whiteSpace=wrap;html=1;fillColor=#647687;fontColor=#ffffff;strokeColor=#314354;" vertex="1" parent="1">
                    <mxGeometry x="140" y="60" width="510" height="610" as="geometry"/>
                </mxCell>
                <mxCell id="7" value="預約型申請" style="ellipse;whiteSpace=wrap;html=1;strokeColor=#006EAF;fontSize=14;fontColor=#ffffff;fillColor=#1ba1e2;" vertex="1" parent="1">
                    <mxGeometry x="230" y="80" width="120" height="70" as="geometry"/>
                </mxCell>
                <mxCell id="8" value="" style="endArrow=none;html=1;fontSize=14;fontColor=#4D4D4D;exitX=0.5;exitY=0.5;exitDx=0;exitDy=0;exitPerimeter=0;" edge="1" parent="1" source="2" target="7">
                    <mxGeometry width="50" height="50" relative="1" as="geometry">
                        <mxPoint x="130" y="150" as="sourcePoint"/>
                        <mxPoint x="180" y="100" as="targetPoint"/>
                    </mxGeometry>
                </mxCell>
                <mxCell id="13" value="審核" style="ellipse;whiteSpace=wrap;html=1;strokeColor=#006EAF;fontSize=14;fontColor=#ffffff;fillColor=#1ba1e2;" vertex="1" parent="1">
                    <mxGeometry x="510" y="100" width="120" height="70" as="geometry"/>
                </mxCell>
                <mxCell id="15" value="推播通知&lt;br&gt;申請狀態：成功" style="ellipse;whiteSpace=wrap;html=1;strokeColor=#006EAF;fontSize=14;fontColor=#ffffff;fillColor=#1ba1e2;" vertex="1" parent="1">
                    <mxGeometry x="200" y="420" width="120" height="70" as="geometry"/>
                </mxCell>
                <mxCell id="17" value="" style="endArrow=none;html=1;fontSize=14;fontColor=#FFFFFF;exitX=0.5;exitY=0.5;exitDx=0;exitDy=0;exitPerimeter=0;" edge="1" parent="1" source="4" target="15">
                    <mxGeometry width="50" height="50" relative="1" as="geometry">
                        <mxPoint x="160" y="300" as="sourcePoint"/>
                        <mxPoint x="240" y="230" as="targetPoint"/>
                    </mxGeometry>
                </mxCell>
                <mxCell id="18" value="" style="endArrow=none;html=1;fontSize=14;fontColor=#FFFFFF;" edge="1" parent="1" source="2" target="15">
                    <mxGeometry width="50" height="50" relative="1" as="geometry">
                        <mxPoint x="95" y="440" as="sourcePoint"/>
                        <mxPoint x="297.8816885456763" y="319.92716392194666" as="targetPoint"/>
                    </mxGeometry>
                </mxCell>
                <mxCell id="19" value="" style="endArrow=none;html=1;fontSize=14;fontColor=#FFFFFF;entryX=0.5;entryY=1;entryDx=0;entryDy=0;exitX=1;exitY=0.5;exitDx=0;exitDy=0;" edge="1" parent="1" source="33" target="49">
                    <mxGeometry width="50" height="50" relative="1" as="geometry">
                        <mxPoint x="500" y="560" as="sourcePoint"/>
                        <mxPoint x="360" y="390" as="targetPoint"/>
                        <Array as="points">
                            <mxPoint x="570" y="575"/>
                        </Array>
                    </mxGeometry>
                </mxCell>
                <mxCell id="20" value="推播通知：&lt;br&gt;重新填寫申請單" style="ellipse;whiteSpace=wrap;html=1;strokeColor=#006EAF;fontSize=14;fontColor=#ffffff;fillColor=#1ba1e2;" vertex="1" parent="1">
                    <mxGeometry x="200" y="540" width="120" height="70" as="geometry"/>
                </mxCell>
                <mxCell id="24" value="" style="endArrow=none;html=1;fontSize=14;fontColor=#FFFFFF;exitX=0.5;exitY=0.5;exitDx=0;exitDy=0;exitPerimeter=0;" edge="1" parent="1" source="3" target="13">
                    <mxGeometry width="50" height="50" relative="1" as="geometry">
                        <mxPoint x="240" y="280" as="sourcePoint"/>
                        <mxPoint x="290" y="230" as="targetPoint"/>
                    </mxGeometry>
                </mxCell>
                <mxCell id="25" value="即時參觀型申請" style="ellipse;whiteSpace=wrap;html=1;strokeColor=#006EAF;fontSize=14;fontColor=#ffffff;fillColor=#1ba1e2;" vertex="1" parent="1">
                    <mxGeometry x="230" y="165" width="120" height="70" as="geometry"/>
                </mxCell>
                <mxCell id="29" value="" style="endArrow=none;html=1;fontSize=14;fontColor=#FFFFFF;" edge="1" parent="1" source="38" target="25">
                    <mxGeometry width="50" height="50" relative="1" as="geometry">
                        <mxPoint x="380" y="210" as="sourcePoint"/>
                        <mxPoint x="430" y="160" as="targetPoint"/>
                    </mxGeometry>
                </mxCell>
                <mxCell id="30" value="" style="endArrow=none;html=1;fontSize=14;fontColor=#FFFFFF;exitX=1;exitY=0.5;exitDx=0;exitDy=0;" edge="1" parent="1" source="7" target="13">
                    <mxGeometry width="50" height="50" relative="1" as="geometry">
                        <mxPoint x="370" y="190" as="sourcePoint"/>
                        <mxPoint x="480" y="150" as="targetPoint"/>
                    </mxGeometry>
                </mxCell>
                <mxCell id="31" value="" style="endArrow=none;html=1;fontSize=14;fontColor=#FFFFFF;" edge="1" parent="1" source="25" target="13">
                    <mxGeometry width="50" height="50" relative="1" as="geometry">
                        <mxPoint x="330" y="230" as="sourcePoint"/>
                        <mxPoint x="380" y="180" as="targetPoint"/>
                    </mxGeometry>
                </mxCell>
                <mxCell id="32" value="預約成功" style="ellipse;whiteSpace=wrap;html=1;strokeColor=#006EAF;fontSize=14;fontColor=#ffffff;fillColor=#1ba1e2;" vertex="1" parent="1">
                    <mxGeometry x="354" y="420" width="120" height="70" as="geometry"/>
                </mxCell>
                <mxCell id="33" value="預約失敗" style="ellipse;whiteSpace=wrap;html=1;strokeColor=#006EAF;fontSize=14;fontColor=#ffffff;fillColor=#1ba1e2;" vertex="1" parent="1">
                    <mxGeometry x="350" y="540" width="120" height="70" as="geometry"/>
                </mxCell>
                <mxCell id="34" value="" style="endArrow=none;html=1;fontSize=14;fontColor=#FFFFFF;entryX=0;entryY=0.5;entryDx=0;entryDy=0;" edge="1" parent="1" source="20" target="33">
                    <mxGeometry width="50" height="50" relative="1" as="geometry">
                        <mxPoint x="300" y="510" as="sourcePoint"/>
                        <mxPoint x="350" y="460" as="targetPoint"/>
                    </mxGeometry>
                </mxCell>
                <mxCell id="35" value="" style="endArrow=none;html=1;fontSize=14;fontColor=#FFFFFF;entryX=0.428;entryY=1.01;entryDx=0;entryDy=0;entryPerimeter=0;exitX=1;exitY=0.5;exitDx=0;exitDy=0;" edge="1" parent="1" source="32" target="49">
                    <mxGeometry width="50" height="50" relative="1" as="geometry">
                        <mxPoint x="470" y="430" as="sourcePoint"/>
                        <mxPoint x="510" y="400" as="targetPoint"/>
                        <Array as="points">
                            <mxPoint x="560" y="455"/>
                        </Array>
                    </mxGeometry>
                </mxCell>
                <mxCell id="37" value="" style="endArrow=none;html=1;fontSize=14;fontColor=#FFFFFF;exitX=1;exitY=0.5;exitDx=0;exitDy=0;" edge="1" parent="1" source="15" target="32">
                    <mxGeometry width="50" height="50" relative="1" as="geometry">
                        <mxPoint x="380" y="380" as="sourcePoint"/>
                        <mxPoint x="430" y="330" as="targetPoint"/>
                    </mxGeometry>
                </mxCell>
                <mxCell id="38" value="參觀型買家" style="shape=umlActor;verticalLabelPosition=bottom;verticalAlign=top;html=1;outlineConnect=0;" vertex="1" parent="1">
                    <mxGeometry x="60" y="240" width="30" height="60" as="geometry"/>
                </mxCell>
                <mxCell id="40" value="系統" style="text;html=1;strokeColor=none;fillColor=none;align=center;verticalAlign=middle;whiteSpace=wrap;rounded=0;fontSize=14;fontColor=#FFFFFF;" vertex="1" parent="1">
                    <mxGeometry x="590" y="70" width="60" height="30" as="geometry"/>
                </mxCell>
                <mxCell id="42" value="系統管理者" style="shape=umlActor;verticalLabelPosition=bottom;verticalAlign=top;html=1;outlineConnect=0;" vertex="1" parent="1">
                    <mxGeometry x="750" y="175" width="30" height="60" as="geometry"/>
                </mxCell>
                <mxCell id="43" value="" style="endArrow=none;html=1;fontSize=14;fontColor=#FFFFFF;exitX=1;exitY=0.31;exitDx=0;exitDy=0;exitPerimeter=0;entryX=0;entryY=0.3333333333333333;entryDx=0;entryDy=0;entryPerimeter=0;" edge="1" parent="1" source="5" target="42">
                    <mxGeometry width="50" height="50" relative="1" as="geometry">
                        <mxPoint x="650" y="220" as="sourcePoint"/>
                        <mxPoint x="700" y="170" as="targetPoint"/>
                    </mxGeometry>
                </mxCell>
                <mxCell id="45" value="" style="endArrow=none;html=1;fontSize=14;fontColor=#FFFFFF;" edge="1" parent="1" source="38" target="15">
                    <mxGeometry width="50" height="50" relative="1" as="geometry">
                        <mxPoint x="120" y="340" as="sourcePoint"/>
                        <mxPoint x="170" y="290" as="targetPoint"/>
                    </mxGeometry>
                </mxCell>
                <mxCell id="46" value="" style="endArrow=none;html=1;fontSize=14;fontColor=#FFFFFF;exitX=0;exitY=0.5;exitDx=0;exitDy=0;" edge="1" parent="1" source="20" target="2">
                    <mxGeometry width="50" height="50" relative="1" as="geometry">
                        <mxPoint x="260" y="390" as="sourcePoint"/>
                        <mxPoint x="310" y="340" as="targetPoint"/>
                        <Array as="points">
                            <mxPoint x="170" y="560"/>
                        </Array>
                    </mxGeometry>
                </mxCell>
                <mxCell id="49" value="預約型：&lt;br&gt;時段衝突" style="ellipse;whiteSpace=wrap;html=1;strokeColor=#006EAF;fontSize=14;fontColor=#ffffff;fillColor=#1ba1e2;" vertex="1" parent="1">
                    <mxGeometry x="510" y="290" width="120" height="70" as="geometry"/>
                </mxCell>
                <mxCell id="50" value="有" style="text;html=1;strokeColor=none;fillColor=none;align=center;verticalAlign=middle;whiteSpace=wrap;rounded=0;fontSize=14;fontColor=#FFFFFF;" vertex="1" parent="1">
                    <mxGeometry x="560" y="490" width="60" height="30" as="geometry"/>
                </mxCell>
                <mxCell id="51" value="無" style="text;html=1;strokeColor=none;fillColor=none;align=center;verticalAlign=middle;whiteSpace=wrap;rounded=0;fontSize=14;fontColor=#FFFFFF;" vertex="1" parent="1">
                    <mxGeometry x="500" y="420" width="60" height="30" as="geometry"/>
                </mxCell>
                <mxCell id="52" value="" style="endArrow=none;html=1;fontSize=14;fontColor=#FFFFFF;exitX=0.5;exitY=0;exitDx=0;exitDy=0;entryX=0.5;entryY=1;entryDx=0;entryDy=0;" edge="1" parent="1" source="49" target="13">
                    <mxGeometry width="50" height="50" relative="1" as="geometry">
                        <mxPoint x="670" y="380" as="sourcePoint"/>
                        <mxPoint x="720" y="330" as="targetPoint"/>
                    </mxGeometry>
                </mxCell>
                <mxCell id="54" value="即時參觀型：&lt;br&gt;即刻安排" style="ellipse;whiteSpace=wrap;html=1;strokeColor=#006EAF;fontSize=14;fontColor=#ffffff;fillColor=#1ba1e2;" vertex="1" parent="1">
                    <mxGeometry x="380" y="285" width="120" height="80" as="geometry"/>
                </mxCell>
                <mxCell id="55" value="" style="endArrow=none;html=1;fontSize=14;fontColor=#FFFFFF;entryX=0.5;entryY=1;entryDx=0;entryDy=0;" edge="1" parent="1" source="54" target="13">
                    <mxGeometry width="50" height="50" relative="1" as="geometry">
                        <mxPoint x="430" y="280" as="sourcePoint"/>
                        <mxPoint x="480" y="230" as="targetPoint"/>
                    </mxGeometry>
                </mxCell>
                <mxCell id="56" value="" style="endArrow=none;html=1;fontSize=14;fontColor=#FFFFFF;entryX=0.439;entryY=1.033;entryDx=0;entryDy=0;entryPerimeter=0;" edge="1" parent="1" source="32" target="54">
                    <mxGeometry width="50" height="50" relative="1" as="geometry">
                        <mxPoint x="340" y="400" as="sourcePoint"/>
                        <mxPoint x="390" y="350" as="targetPoint"/>
                    </mxGeometry>
                </mxCell>
            </root>
        </mxGraphModel>
    </diagram>
    <diagram id="YNBZmlXG5lnyesX3e9GX" name="1d">
        <mxGraphModel dx="1102" dy="787" grid="1" gridSize="10" guides="1" tooltips="1" connect="1" arrows="1" fold="1" page="1" pageScale="1" pageWidth="827" pageHeight="1169" math="0" shadow="0">
            <root>
                <mxCell id="0"/>
                <mxCell id="1" parent="0"/>
            </root>
        </mxGraphModel>
    </diagram>
    <diagram id="AscKv5OJ8TlSJ3xA4gjY" name="2b">
        <mxGraphModel dx="1102" dy="787" grid="1" gridSize="10" guides="1" tooltips="1" connect="1" arrows="1" fold="1" page="1" pageScale="1" pageWidth="827" pageHeight="1169" math="0" shadow="0">
            <root>
                <mxCell id="0"/>
                <mxCell id="1" parent="0"/>
            </root>
        </mxGraphModel>
    </diagram>
    <diagram id="jKp8lnFoO_ODNvvGuu6S" name="2d">
        <mxGraphModel dx="1102" dy="787" grid="1" gridSize="10" guides="1" tooltips="1" connect="1" arrows="1" fold="1" page="1" pageScale="1" pageWidth="827" pageHeight="1169" math="0" shadow="0">
            <root>
                <mxCell id="0"/>
                <mxCell id="1" parent="0"/>
            </root>
        </mxGraphModel>
    </diagram>
</mxfile>